# xmcd CD database file
#
# Track frame offsets:
#	150
#	20851
#	31420
#	56593
#	69682
#	86950
#	102610
#	114921
#	128036
#	142220
#	154966
#	165386
#
# Disc length: 2506 seconds
#
# Revision: 0
# Processed by: cddbd v1.5.2PL0 Copyright (c) Steve Scherf et al.
# Submitted via: Feurio! 1.68 - http://www.feurio.com
#
DISCID=af09c80c
DTITLE=Fleetwood Mac - Greatest Hits
DYEAR=1900
DGENRE=
TTITLE0=Green Malnalishi
TTITLE1=Oh Well Part 1
TTITLE2=Oh Well Part2
TTITLE3=Shake your Money Maker
TTITLE4=Need your Love so Bad
TTITLE5=Rattle Snake Shake
TTITLE6=Dragonfly
TTITLE7=Black Magic Woman
TTITLE8=Albatross
TTITLE9=Man of the World
TTITLE10=Stop messing Around
TTITLE11=Love that burns
EXTD=
EXTT0=
EXTT1=
EXTT2=
EXTT3=
EXTT4=
EXTT5=
EXTT6=
EXTT7=
EXTT8=
EXTT9=
EXTT10=
EXTT11=
PLAYORDER=
